<svg width="100" height="100" viewBox="0 0 100 100" fill="none" xmlns="http://www.w3.org/2000/svg">
<g opacity="0.85">
<g clip-path="url(#clip0_22_30)">
<path d="M82.4542 29.1984L70.8018 17.546C70.4514 17.1964 69.9768 17 69.4818 17H18.866C17.8348 17 17 17.8348 17 18.866V81.134C17 82.1652 17.8348 83 18.866 83H81.134C82.1652 83 83 82.1652 83 81.134V30.5179C83 30.0227 82.8031 29.5486 82.4542 29.1984ZM25.7521 24.8922C25.7521 24.1498 26.3554 23.5458 27.0987 23.5458H63.7344C64.4786 23.5458 65.0812 24.1498 65.0812 24.8922V42.7175C65.0812 43.4614 64.4788 44.0636 63.7344 44.0636H27.0987C26.3554 44.0636 25.7521 43.4614 25.7521 42.7175V24.8922V24.8922ZM74.2479 73.3305C74.2479 74.2477 73.5037 74.9915 72.5875 74.9915H27.4125C26.4963 74.9915 25.7521 74.2477 25.7521 73.3305V51.3519C25.7521 50.4351 26.4963 49.6916 27.4125 49.6916H72.5875C73.5037 49.6916 74.2479 50.4351 74.2479 51.3519V73.3305Z" fill="white"/>
<path d="M62.0966 25.8848H56.5007V41.7257H62.0966V25.8848Z" fill="white"/>
<path d="M69.4608 56.7463H30.5388V58.6114H69.4608V56.7463Z" fill="white"/>
<path d="M69.4608 66.0721H30.5388V67.9372H69.4608V66.0721Z" fill="white"/>
</g>
<rect x="0.5" y="0.5" width="99" height="99" rx="4.5" stroke="white"/>
</g>
<defs>
<clipPath id="clip0_22_30">
<rect width="66" height="66" fill="white" transform="translate(17 17)"/>
</clipPath>
</defs>
</svg>
