<svg width="100" height="100" viewBox="0 0 100 100" fill="none" xmlns="http://www.w3.org/2000/svg">
<g opacity="0.85">
<rect x="0.5" y="0.5" width="99" height="99" rx="4.5" stroke="white"/>
<g opacity="0.85">
<path d="M66.011 86.8999H34.9576C31.2605 86.8999 28.1953 84.0088 27.9786 80.318L24.8842 27.4676C24.8464 26.8177 25.078 26.1812 25.5239 25.7077C25.9706 25.2343 26.5922 24.9664 27.2436 24.9664H73.7241C74.3748 24.9664 74.9964 25.2351 75.4438 25.7077C75.8897 26.1812 76.1213 26.8177 76.0843 27.4676L72.9899 80.3188C72.7733 84.0088 69.708 86.8999 66.011 86.8999ZM29.7488 29.6923L32.6974 80.0415C32.7668 81.2374 33.7601 82.1733 34.9576 82.1733H66.011C67.2084 82.1733 68.2002 81.2374 68.2703 80.0423L71.2182 29.6923H29.7488Z" fill="white"/>
<path d="M78.6043 29.6924H22.3633C21.058 29.6924 20 28.6344 20 27.329C20 26.0237 21.058 24.9657 22.3633 24.9657H78.6051C79.9105 24.9657 80.9685 26.0237 80.9685 27.329C80.9685 28.6344 79.9105 29.6924 78.6043 29.6924Z" fill="white"/>
<path d="M61.2993 29.6924H39.6685C38.3632 29.6924 37.3052 28.6344 37.3052 27.329V22.9238C37.3052 19.1062 40.4114 16 44.2297 16H56.7389C60.5572 16 63.6626 19.1062 63.6626 22.9238V27.329C63.6626 28.6344 62.6047 29.6924 61.2993 29.6924ZM42.0318 24.9657H58.9352V22.9238C58.936 21.7122 57.9505 20.7267 56.7381 20.7267H44.2297C43.0181 20.7267 42.0326 21.7122 42.0326 22.9238V24.9657H42.0318Z" fill="white"/>
<path d="M60.9849 75.0763C60.9376 75.0763 60.8919 75.0747 60.8439 75.0723C59.5417 74.9959 58.5467 73.8773 58.6231 72.5743L60.5721 39.2954C60.6485 37.9916 61.7601 36.9849 63.0701 37.0747C64.3723 37.1511 65.3673 38.2689 65.2909 39.5719L63.3419 72.8516C63.2687 74.1073 62.2264 75.0763 60.9849 75.0763Z" fill="white"/>
<path d="M39.9819 75.0762C38.7396 75.0762 37.699 74.1073 37.6249 72.8516L35.6767 39.5719C35.6003 38.2689 36.5945 37.1511 37.8975 37.0746C39.1942 36.9872 40.3183 37.9924 40.3947 39.2954L42.3429 72.5743C42.4193 73.8772 41.4251 74.9959 40.1222 75.0723C40.0757 75.0747 40.0292 75.0762 39.9819 75.0762Z" fill="white"/>
<path d="M50.4838 75.0762C49.1785 75.0762 48.1205 74.0182 48.1205 72.7129V39.434C48.1205 38.1287 49.1785 37.0707 50.4838 37.0707C51.7892 37.0707 52.8471 38.1287 52.8471 39.434V72.7129C52.8471 74.0182 51.7892 75.0762 50.4838 75.0762Z" fill="white"/>
</g>
</g>
</svg>
